# xmcd
#
# Track frame offsets:
#	182
#	19437
#	38492
#	48895
#	63402
#	81152
#	98932
#	120540
#	136215
#	158992
#	181615
#	196060
#	214112
#	223690
#	236592
#	251292
#	265220
#	284815
#
# Disc length: 4234 seconds
#
# Revision: 1
# Processed by: cddbd v1.5PL3 Copyright (c) Steve Scherf et al.
# Submitted via: CDex 1.50Beta5
#
DISCID=fd108812
DTITLE=泉谷しげる - ライブ!!泉谷〜王様たちの夜
DYEAR=1991
DGENRE=Pop
TTITLE0=寒い国から来た手紙
TTITLE1=遥かなる人
TTITLE2=懐かしい人
TTITLE3=里帰り
TTITLE4=春夏秋冬
TTITLE5=日が沈むころに
TTITLE6=ヒマ人クラブ
TTITLE7=春のからっ風
TTITLE8=鏡の前のつぶやき
TTITLE9=終りをつげる
TTITLE10=個人的理由
TTITLE11=乱・乱・乱
TTITLE12=街はぱれえど
TTITLE13=ひとりあるき
TTITLE14=夜のかげろう
TTITLE15=眠れない夜
TTITLE16=Dのロック
TTITLE17=ブルースを唄わないで
EXTD=
EXTT0=
EXTT1=
EXTT2=
EXTT3=
EXTT4=
EXTT5=
EXTT6=
EXTT7=
EXTT8=
EXTT9=
EXTT10=
EXTT11=
EXTT12=
EXTT13=
EXTT14=
EXTT15=
EXTT16=
EXTT17=
PLAYORDER=
